<svg xmlns="http://www.w3.org/2000/svg" width="32" height="32"><path d="M13.984 3a.5.5 0 0 0-.238.064 4.72 4.72 0 0 0-2.369 3.63H4.5a.5.5 0 0 0-.5.5v4.615a.5.5 0 0 0 .5.5H5V27.5a.5.5 0 0 0 .5.5h21a.5.5 0 0 0 .5-.5V12.309h.547a.5.5 0 0 0 .5-.5V7.193a.5.5 0 0 0-.5-.5h-6.924a4.72 4.72 0 0 0-2.37-3.629.5.5 0 0 0-.24-.064.5.5 0 0 0-.443.26L16 6.12 14.43 3.26a.5.5 0 0 0-.444-.26.5.5 0 0 1-.002 0zm-.12 1.307 1.312 2.386h-2.697a3.61 3.61 0 0 1 1.384-2.386zm4.273 0a3.61 3.61 0 0 1 1.384 2.386h-2.697l1.313-2.386zM5 7.693h9v3.616H5V7.693zm10 0h2V27h-2V7.693zm3 0h9.046v3.616H18V7.693zM6 12.31h8V27H6V12.309zm12 0h8V27h-8V12.309zm-3.703 15.646a.5.5 0 0 0 .015.008l-.015-.008zm3.408 0-.021.008a.5.5 0 0 0 .021-.008z" color="#000" font-family="sans-serif" font-weight="400" overflow="visible" style="line-height:normal;text-indent:0;text-align:start;text-decoration-line:none;text-decoration-style:solid;text-decoration-color:#000;text-transform:none;block-progression:tb;white-space:normal;isolation:auto;mix-blend-mode:normal;solid-color:#000;solid-opacity:1"/></svg>