<svg width="398" height="97" viewBox="0 0 398 97" fill="none" xmlns="http://www.w3.org/2000/svg">
<g filter="url(#filter0_d_405_207)">
<rect x="6" y="9" width="386" height="74" rx="37" fill="#D24747"/>
</g>
<rect opacity="0.2" x="129" y="92.6729" width="140" height="4" rx="2" fill="#B1A9A9"/>
<path d="M186.876 63H191.58V61.428H188.664V54.12H186.876V63ZM192.668 55.524H194.24V54.12H192.668V55.524ZM192.668 63H194.24V56.412H192.668V63ZM196.074 63H197.646V59.712L200.01 63H201.81L199.062 59.316L201.798 56.412H199.914L197.646 58.92V54.12H196.074V63ZM208.98 60.228C209.112 59.076 208.812 58.044 208.008 57.216C207.396 56.58 206.532 56.208 205.548 56.208C203.556 56.208 202.092 57.852 202.092 59.724C202.092 61.56 203.544 63.204 205.572 63.204C206.256 63.204 206.904 63.012 207.456 62.628C208.008 62.256 208.476 61.704 208.788 60.972H207.168C206.868 61.512 206.352 61.86 205.584 61.86C204.684 61.872 203.748 61.284 203.676 60.228H208.98ZM203.7 59.028C203.76 58.38 204.396 57.54 205.56 57.54C206.712 57.528 207.372 58.404 207.432 59.028H203.7ZM217.16 54.12H215.588V56.304V57.264C215.348 56.88 214.64 56.208 213.38 56.208C211.592 56.208 210.068 57.564 210.068 59.7C210.068 61.62 211.376 63.204 213.404 63.204C214.748 63.204 215.372 62.544 215.66 62.052V63H217.16V54.12ZM211.64 59.688C211.64 58.656 212.384 57.672 213.668 57.672C214.232 57.672 214.736 57.888 215.096 58.248C215.456 58.596 215.684 59.088 215.684 59.664C215.708 60.24 215.492 60.756 215.12 61.128C214.748 61.5 214.232 61.728 213.656 61.728C212.444 61.728 211.64 60.816 211.64 59.7V59.688Z" fill="#B7B6C1"/>
<path d="M203 25.5585C201.908 24.5563 200.478 24 198.993 24C198.208 24.0008 197.43 24.1566 196.705 24.4584C195.98 24.7602 195.322 25.2021 194.769 25.7586C192.41 28.1224 192.411 31.8196 194.771 34.1734L202.123 41.5078C202.294 41.8069 202.622 42 203 42C203.156 41.9985 203.308 41.9607 203.446 41.8896C203.584 41.8186 203.704 41.7163 203.795 41.5909L211.23 34.1734C213.59 31.8186 213.59 28.1224 211.228 25.7546C210.675 25.1991 210.018 24.7581 209.293 24.457C208.569 24.1559 207.792 24.0006 207.007 24C205.523 24.0002 204.093 24.5565 203 25.5585ZM209.81 27.1691C211.377 28.7406 211.378 31.1954 209.812 32.7589L203 39.5542L196.189 32.7589C194.623 31.1954 194.624 28.7406 196.187 27.1731C196.949 26.4168 197.946 26.0007 198.993 26.0007C200.041 26.0007 201.034 26.4168 201.79 27.1711L202.292 27.6712C202.385 27.7642 202.495 27.838 202.617 27.8883C202.738 27.9386 202.869 27.9645 203 27.9645C203.132 27.9645 203.263 27.9386 203.384 27.8883C203.506 27.838 203.616 27.7642 203.709 27.6712L204.211 27.1711C205.727 25.6616 208.296 25.6656 209.81 27.1691Z" fill="#B7B6C1"/>
<path d="M328.36 60.24C328.348 61.956 329.392 63.168 331.408 63.168C333.496 63.168 334.372 61.836 334.372 60.408C334.372 59.148 333.616 58.5 332.26 57.912C330.76 57.288 330.28 57.12 330.292 56.46C330.292 55.86 330.796 55.452 331.384 55.452C332.26 55.452 332.416 56.136 332.488 56.544H334.252C334.18 54.576 332.62 53.952 331.444 53.952C330.004 53.952 328.504 54.876 328.504 56.58C328.504 58.26 330.052 58.812 330.724 59.052C331.96 59.544 332.596 59.736 332.596 60.492C332.596 61.116 332.068 61.668 331.384 61.668C331 61.668 330.196 61.44 330.136 60.24H328.36ZM342.515 56.412H340.943V57.372C340.655 56.844 339.923 56.208 338.723 56.208C336.875 56.208 335.375 57.624 335.375 59.7C335.375 61.56 336.611 63.204 338.723 63.204C339.647 63.204 340.523 62.82 340.943 62.052V63H342.515V56.412ZM336.947 59.724C336.947 58.704 337.667 57.672 338.939 57.672C339.887 57.672 340.499 58.212 340.775 58.836C340.907 59.124 340.967 59.448 340.955 59.76C340.931 60.084 340.859 60.396 340.703 60.684C340.403 61.284 339.827 61.74 338.951 61.74C337.535 61.74 336.947 60.552 336.947 59.736V59.724ZM344.319 63H345.891V54.12H344.319V63ZM354.144 60.228C354.276 59.076 353.976 58.044 353.172 57.216C352.56 56.58 351.696 56.208 350.712 56.208C348.72 56.208 347.256 57.852 347.256 59.724C347.256 61.56 348.708 63.204 350.736 63.204C351.42 63.204 352.068 63.012 352.62 62.628C353.172 62.256 353.64 61.704 353.952 60.972H352.332C352.032 61.512 351.516 61.86 350.748 61.86C349.848 61.872 348.912 61.284 348.84 60.228H354.144ZM348.864 59.028C348.924 58.38 349.56 57.54 350.724 57.54C351.876 57.528 352.536 58.404 352.596 59.028H348.864Z" fill="#B7B6C1"/>
<path d="M341 25.5585C339.908 24.5563 338.478 24 336.993 24C336.208 24.0008 335.43 24.1566 334.705 24.4584C333.98 24.7602 333.322 25.2021 332.769 25.7586C330.41 28.1224 330.411 31.8196 332.771 34.1734L340.123 41.5078C340.294 41.8069 340.622 42 341 42C341.156 41.9985 341.308 41.9607 341.446 41.8896C341.584 41.8186 341.704 41.7163 341.795 41.5909L349.23 34.1734C351.59 31.8186 351.59 28.1224 349.228 25.7546C348.675 25.1991 348.018 24.7581 347.293 24.457C346.569 24.1559 345.792 24.0006 345.007 24C343.523 24.0002 342.093 24.5565 341 25.5585ZM347.81 27.1691C349.377 28.7406 349.378 31.1954 347.812 32.7589L341 39.5542L334.189 32.7589C332.623 31.1954 332.624 28.7406 334.187 27.1731C334.949 26.4168 335.946 26.0007 336.993 26.0007C338.041 26.0007 339.034 26.4168 339.79 27.1711L340.292 27.6712C340.385 27.7642 340.495 27.838 340.617 27.8883C340.738 27.9386 340.869 27.9645 341 27.9645C341.132 27.9645 341.263 27.9386 341.384 27.8883C341.506 27.838 341.616 27.7642 341.709 27.6712L342.211 27.1711C343.727 25.6616 346.296 25.6656 347.81 27.1691Z" fill="#B7B6C1"/>
<path d="M33.628 63V59.256H37.048V63H38.836V54.12H37.048V57.684H33.628V54.12H31.84V63H33.628ZM40.3322 59.7C40.3322 61.404 41.5682 63.192 43.8602 63.192C46.1522 63.192 47.3882 61.404 47.3882 59.7C47.3882 58.008 46.1522 56.22 43.8602 56.22C41.5682 56.22 40.3322 58.008 40.3322 59.688V59.7ZM41.9042 59.7C41.9042 58.536 42.7802 57.684 43.8602 57.684C44.9402 57.684 45.8042 58.536 45.8042 59.7C45.8042 60.864 44.9402 61.716 43.8602 61.716C42.7802 61.716 41.9042 60.864 41.9042 59.712V59.7ZM48.842 63H50.414V59.436C50.414 59.052 50.474 58.644 50.666 58.296C50.858 57.96 51.218 57.684 51.794 57.684C52.358 57.696 52.682 57.948 52.874 58.296C53.042 58.632 53.078 59.004 53.078 59.388V63H54.65V59.388C54.65 58.992 54.674 58.644 54.878 58.284C55.082 57.924 55.466 57.684 56.018 57.684C56.57 57.684 56.882 57.9 57.05 58.224C57.278 58.572 57.314 59.028 57.314 59.448V63H58.886V59.388C58.886 58.032 58.766 57.492 58.166 56.868C57.662 56.352 56.966 56.208 56.414 56.208C55.718 56.208 55.142 56.472 54.734 56.856C54.518 57.06 54.374 57.276 54.254 57.48C54.17 57.312 54.002 57.036 53.858 56.88C53.378 56.364 52.778 56.208 52.238 56.208C51.098 56.208 50.462 56.94 50.318 57.24V56.412H48.842V63ZM67.1164 60.228C67.2484 59.076 66.9484 58.044 66.1444 57.216C65.5324 56.58 64.6684 56.208 63.6844 56.208C61.6924 56.208 60.2284 57.852 60.2284 59.724C60.2284 61.56 61.6804 63.204 63.7084 63.204C64.3924 63.204 65.0404 63.012 65.5924 62.628C66.1444 62.256 66.6124 61.704 66.9244 60.972H65.3044C65.0044 61.512 64.4884 61.86 63.7204 61.86C62.8204 61.872 61.8844 61.284 61.8124 60.228H67.1164ZM61.8364 59.028C61.8964 58.38 62.5324 57.54 63.6964 57.54C64.8484 57.528 65.5084 58.404 65.5684 59.028H61.8364Z" fill="white"/>
<path d="M47.3113 24.2523C47.4943 24.0898 47.7305 24 47.9753 24C48.22 24 48.4563 24.0898 48.6393 24.2523L57.6393 32.2523C57.8274 32.431 57.9387 32.6758 57.9496 32.9351C57.9606 33.1943 57.8703 33.4477 57.6979 33.6416C57.5256 33.8356 57.2845 33.9549 57.0258 33.9744C56.767 33.994 56.5108 33.9121 56.3113 33.7463L55.9753 33.4493V40.9993C55.9753 41.5297 55.7646 42.0384 55.3895 42.4135C55.0144 42.7886 54.5057 42.9993 53.9753 42.9993H50.9753H44.9753H41.9753C41.4448 42.9993 40.9361 42.7886 40.5611 42.4135C40.186 42.0384 39.9753 41.5297 39.9753 40.9993V33.4493L39.6393 33.7463C39.4397 33.9121 39.1835 33.994 38.9248 33.9744C38.666 33.9549 38.425 33.8356 38.2526 33.6416C38.0802 33.4477 37.9899 33.1943 38.0009 32.9351C38.0118 32.6758 38.1231 32.431 38.3113 32.2523L47.3113 24.2523ZM41.9753 31.6693V40.9993H44.9753V35.9993C44.9753 35.7341 45.0806 35.4797 45.2682 35.2922C45.4557 35.1046 45.7101 34.9993 45.9753 34.9993H49.9753C50.2405 34.9993 50.4948 35.1046 50.6824 35.2922C50.8699 35.4797 50.9753 35.7341 50.9753 35.9993V40.9993H53.9753V31.6703L47.9753 26.3373L41.9753 31.6693ZM48.9753 40.9993V36.9993H46.9753V40.9993H48.9753Z" fill="white"/>
<path d="M101.572 60.024C101.404 60.348 100.684 61.596 99.1 61.596C97.408 61.596 96.244 60.168 96.244 58.548C96.244 56.976 97.36 55.524 99.088 55.524C100.504 55.536 101.296 56.532 101.572 57.144H103.456C103.108 55.848 101.656 53.964 99.1 53.952C96.292 53.952 94.456 56.184 94.456 58.548C94.456 61.02 96.4 63.168 99.112 63.168C101.188 63.168 102.916 61.86 103.456 60.024H101.572ZM111.656 56.412H110.084V57.372C109.796 56.844 109.064 56.208 107.864 56.208C106.016 56.208 104.516 57.624 104.516 59.7C104.516 61.56 105.752 63.204 107.864 63.204C108.788 63.204 109.664 62.82 110.084 62.052V63H111.656V56.412ZM106.088 59.724C106.088 58.704 106.808 57.672 108.08 57.672C109.028 57.672 109.64 58.212 109.916 58.836C110.048 59.124 110.108 59.448 110.096 59.76C110.072 60.084 110 60.396 109.844 60.684C109.544 61.284 108.968 61.74 108.092 61.74C106.676 61.74 106.088 60.552 106.088 59.736V59.724ZM113.891 63H115.463V57.624H116.591V56.412H115.463V54.12H113.891V56.412H112.799V57.624H113.891V63ZM123.917 60.228C124.049 59.076 123.749 58.044 122.945 57.216C122.333 56.58 121.469 56.208 120.485 56.208C118.493 56.208 117.029 57.852 117.029 59.724C117.029 61.56 118.481 63.204 120.509 63.204C121.193 63.204 121.841 63.012 122.393 62.628C122.945 62.256 123.413 61.704 123.725 60.972H122.105C121.805 61.512 121.289 61.86 120.521 61.86C119.621 61.872 118.685 61.284 118.613 60.228H123.917ZM118.637 59.028C118.697 58.38 119.333 57.54 120.497 57.54C121.649 57.528 122.309 58.404 122.369 59.028H118.637ZM132.085 56.412H130.501V57.3C130.129 56.652 129.313 56.22 128.365 56.22C126.541 56.22 125.005 57.588 125.005 59.736C125.005 61.764 126.469 63.204 128.365 63.204C129.481 63.204 130.177 62.616 130.501 62.028V62.58C130.501 63.912 129.481 64.56 128.545 64.56C128.353 64.56 128.005 64.512 127.681 64.332C127.393 64.188 127.141 63.96 126.997 63.66H125.173C125.413 64.68 126.397 65.904 128.449 65.904C129.805 65.904 130.909 65.304 131.473 64.548C131.881 63.996 132.085 63.3 132.085 62.22V56.412ZM126.577 59.688C126.577 58.512 127.477 57.684 128.545 57.684C129.229 57.684 129.721 57.948 130.033 58.344C130.357 58.728 130.513 59.256 130.513 59.76C130.501 60.324 130.297 60.816 129.949 61.164C129.601 61.524 129.133 61.728 128.545 61.728C127.405 61.728 126.577 60.852 126.577 59.7V59.688ZM133.507 59.7C133.507 61.404 134.743 63.192 137.035 63.192C139.327 63.192 140.563 61.404 140.563 59.7C140.563 58.008 139.327 56.22 137.035 56.22C134.743 56.22 133.507 58.008 133.507 59.688V59.7ZM135.079 59.7C135.079 58.536 135.955 57.684 137.035 57.684C138.115 57.684 138.979 58.536 138.979 59.7C138.979 60.864 138.115 61.716 137.035 61.716C135.955 61.716 135.079 60.864 135.079 59.712V59.7ZM142.005 63H143.577V59.448C143.577 58.308 144.141 57.792 145.245 57.792H145.317V56.208C144.321 56.22 143.781 56.688 143.493 57.276V56.412H142.005V63ZM146.511 55.524H148.083V54.12H146.511V55.524ZM146.511 63H148.083V56.412H146.511V63ZM156.336 60.228C156.468 59.076 156.168 58.044 155.364 57.216C154.752 56.58 153.888 56.208 152.904 56.208C150.912 56.208 149.448 57.852 149.448 59.724C149.448 61.56 150.9 63.204 152.928 63.204C153.612 63.204 154.26 63.012 154.812 62.628C155.364 62.256 155.832 61.704 156.144 60.972H154.524C154.224 61.512 153.708 61.86 152.94 61.86C152.04 61.872 151.104 61.284 151.032 60.228H156.336ZM151.056 59.028C151.116 58.38 151.752 57.54 152.916 57.54C154.068 57.528 154.728 58.404 154.788 59.028H151.056ZM162.176 58.188C162.044 56.604 160.724 56.208 159.836 56.208C158.564 56.208 157.472 57.012 157.472 58.308C157.484 59.256 158.204 59.748 159.092 60.024C160.304 60.444 160.796 60.6 160.796 61.164C160.808 61.608 160.388 61.932 159.896 61.932C159.596 61.932 158.984 61.788 158.924 61.08H157.352C157.472 62.676 158.852 63.204 159.872 63.204C161.252 63.204 162.392 62.34 162.368 60.984C162.356 59.568 161.216 59.256 160.16 58.968C159.536 58.788 159.056 58.56 159.044 58.14C159.044 57.816 159.296 57.48 159.824 57.48C160.436 57.48 160.616 57.84 160.628 58.188H162.176Z" fill="#B7B6C1"/>
<path d="M118 26C118 25.4696 118.211 24.9609 118.586 24.5858C118.961 24.2107 119.47 24 120 24H124C124.53 24 125.039 24.2107 125.414 24.5858C125.789 24.9609 126 25.4696 126 26V30C126 30.5304 125.789 31.0391 125.414 31.4142C125.039 31.7893 124.53 32 124 32H120C119.47 32 118.961 31.7893 118.586 31.4142C118.211 31.0391 118 30.5304 118 30V26ZM124 26H120V30H124V26ZM128 26C128 25.4696 128.211 24.9609 128.586 24.5858C128.961 24.2107 129.47 24 130 24H134C134.53 24 135.039 24.2107 135.414 24.5858C135.789 24.9609 136 25.4696 136 26V30C136 30.5304 135.789 31.0391 135.414 31.4142C135.039 31.7893 134.53 32 134 32H130C129.47 32 128.961 31.7893 128.586 31.4142C128.211 31.0391 128 30.5304 128 30V26ZM134 26H130V30H134V26ZM118 36C118 35.4696 118.211 34.9609 118.586 34.5858C118.961 34.2107 119.47 34 120 34H124C124.53 34 125.039 34.2107 125.414 34.5858C125.789 34.9609 126 35.4696 126 36V40C126 40.5304 125.789 41.0391 125.414 41.4142C125.039 41.7893 124.53 42 124 42H120C119.47 42 118.961 41.7893 118.586 41.4142C118.211 41.0391 118 40.5304 118 40V36ZM124 36H120V40H124V36ZM128 36C128 35.4696 128.211 34.9609 128.586 34.5858C128.961 34.2107 129.47 34 130 34H134C134.53 34 135.039 34.2107 135.414 34.5858C135.789 34.9609 136 35.4696 136 36V40C136 40.5304 135.789 41.0391 135.414 41.4142C135.039 41.7893 134.53 42 134 42H130C129.47 42 128.961 41.7893 128.586 41.4142C128.211 41.0391 128 40.5304 128 40V36ZM134 36H130V40H134V36Z" fill="#B7B6C1"/>
<path d="M248.676 61.26H252.18L252.828 63H254.784L251.268 54.12H249.696L246.096 63H248.04L248.676 61.26ZM251.7 59.832H249.144L250.404 56.232L251.7 59.832ZM260.847 60.6C260.607 61.14 260.055 61.728 259.071 61.728C257.955 61.728 257.127 60.888 257.127 59.7C257.127 59.124 257.331 58.596 257.667 58.236C258.051 57.864 258.495 57.66 259.071 57.672C259.935 57.672 260.571 58.164 260.847 58.86H262.455C262.071 57.252 260.667 56.208 259.011 56.208C257.043 56.208 255.543 57.756 255.543 59.7C255.543 61.584 256.983 63.204 259.071 63.204C260.775 63.204 262.083 62.064 262.455 60.6H260.847ZM268.809 60.6C268.569 61.14 268.017 61.728 267.033 61.728C265.917 61.728 265.089 60.888 265.089 59.7C265.089 59.124 265.293 58.596 265.629 58.236C266.013 57.864 266.457 57.66 267.033 57.672C267.897 57.672 268.533 58.164 268.809 58.86H270.417C270.033 57.252 268.629 56.208 266.973 56.208C265.005 56.208 263.505 57.756 263.505 59.7C263.505 61.584 264.945 63.204 267.033 63.204C268.737 63.204 270.045 62.064 270.417 60.6H268.809ZM271.48 59.7C271.48 61.404 272.716 63.192 275.008 63.192C277.3 63.192 278.536 61.404 278.536 59.7C278.536 58.008 277.3 56.22 275.008 56.22C272.716 56.22 271.48 58.008 271.48 59.688V59.7ZM273.052 59.7C273.052 58.536 273.928 57.684 275.008 57.684C276.088 57.684 276.952 58.536 276.952 59.7C276.952 60.864 276.088 61.716 275.008 61.716C273.928 61.716 273.052 60.864 273.052 59.712V59.7ZM286.062 56.412H284.49V60.048C284.49 60.984 284.106 61.728 282.978 61.728C281.862 61.74 281.538 60.972 281.538 60V56.412H279.966V60.396C279.966 61.548 280.374 63.192 282.534 63.204C283.722 63.216 284.31 62.64 284.586 62.124V63H286.062V56.412ZM287.859 63H289.431V59.364C289.431 58.44 289.815 57.696 290.931 57.684C292.035 57.684 292.359 58.44 292.359 59.424V63H293.931V59.028C293.931 57.864 293.523 56.22 291.375 56.208C290.199 56.196 289.611 56.772 289.323 57.288C289.335 56.976 289.335 56.7 289.335 56.412H287.859V63ZM296.136 63H297.708V57.624H298.836V56.412H297.708V54.12H296.136V56.412H295.044V57.624H296.136V63Z" fill="#B7B6C1"/>
<path d="M279.333 38.6894C278.907 37.679 278.288 36.7612 277.511 35.9872C276.737 35.2109 275.819 34.592 274.81 34.1646C274.801 34.1601 274.791 34.1578 274.782 34.1533C276.191 33.1357 277.106 31.4781 277.106 29.608C277.106 26.5101 274.597 24 271.5 24C268.403 24 265.894 26.5101 265.894 29.608C265.894 31.4781 266.809 33.1357 268.218 34.1555C268.209 34.16 268.199 34.1623 268.19 34.1668C267.178 34.5942 266.269 35.207 265.489 35.9894C264.713 36.7641 264.094 37.6817 263.667 38.6917C263.247 39.6805 263.021 40.7406 263 41.8146C262.999 41.8387 263.004 41.8627 263.013 41.8852C263.021 41.9077 263.035 41.9281 263.051 41.9454C263.068 41.9627 263.088 41.9764 263.111 41.9858C263.133 41.9952 263.157 42 263.181 42H264.537C264.637 42 264.716 41.9209 264.718 41.8236C264.763 40.0779 265.464 38.443 266.703 37.2038C267.985 35.9216 269.687 35.2161 271.5 35.2161C273.313 35.2161 275.015 35.9216 276.297 37.2038C277.536 38.443 278.237 40.0779 278.282 41.8236C278.284 41.9231 278.363 42 278.463 42H279.819C279.843 42 279.867 41.9952 279.889 41.9858C279.912 41.9764 279.932 41.9627 279.949 41.9454C279.965 41.9281 279.979 41.9077 279.987 41.8852C279.996 41.8627 280.001 41.8387 280 41.8146C279.977 40.7337 279.754 39.6822 279.333 38.6894ZM271.5 33.4975C270.462 33.4975 269.486 33.0927 268.751 32.3578C268.016 31.6229 267.612 30.646 267.612 29.608C267.612 28.5701 268.016 27.5932 268.751 26.8583C269.486 26.1234 270.462 25.7186 271.5 25.7186C272.538 25.7186 273.514 26.1234 274.249 26.8583C274.984 27.5932 275.388 28.5701 275.388 29.608C275.388 30.646 274.984 31.6229 274.249 32.3578C273.514 33.0927 272.538 33.4975 271.5 33.4975Z" fill="#B7B6C1"/>
<defs>
<filter id="filter0_d_405_207" x="0" y="0" width="398" height="86" filterUnits="userSpaceOnUse" color-interpolation-filters="sRGB">
<feFlood flood-opacity="0" result="BackgroundImageFix"/>
<feColorMatrix in="SourceAlpha" type="matrix" values="0 0 0 0 0 0 0 0 0 0 0 0 0 0 0 0 0 0 127 0" result="hardAlpha"/>
<feOffset dy="-3"/>
<feGaussianBlur stdDeviation="3"/>
<feComposite in2="hardAlpha" operator="out"/>
<feColorMatrix type="matrix" values="0 0 0 0 0 0 0 0 0 0 0 0 0 0 0 0 0 0 0.11 0"/>
<feBlend mode="normal" in2="BackgroundImageFix" result="effect1_dropShadow_405_207"/>
<feBlend mode="normal" in="SourceGraphic" in2="effect1_dropShadow_405_207" result="shape"/>
</filter>
</defs>
</svg>
