<svg width="430" height="98" viewBox="0 0 430 98" fill="none" xmlns="http://www.w3.org/2000/svg">
<path fill-rule="evenodd" clip-rule="evenodd" d="M215 75C237.644 75 256 56.6437 256 34C256 24.1305 252.513 15.0756 246.703 8H430V76H0V8H183.297C177.487 15.0756 174 24.1305 174 34C174 56.6437 192.356 75 215 75Z" fill="white"/>
<path d="M22.876 70H27.58V68.428H24.664V61.12H22.876V70ZM28.6684 62.524H30.2404V61.12H28.6684V62.524ZM28.6684 70H30.2404V63.412H28.6684V70ZM32.0736 70H33.6456V66.712L36.0096 70H37.8096L35.0616 66.316L37.7976 63.412H35.9136L33.6456 65.92V61.12H32.0736V70ZM44.9797 67.228C45.1117 66.076 44.8117 65.044 44.0077 64.216C43.3957 63.58 42.5317 63.208 41.5477 63.208C39.5557 63.208 38.0917 64.852 38.0917 66.724C38.0917 68.56 39.5437 70.204 41.5717 70.204C42.2557 70.204 42.9037 70.012 43.4557 69.628C44.0077 69.256 44.4757 68.704 44.7877 67.972H43.1677C42.8677 68.512 42.3517 68.86 41.5837 68.86C40.6837 68.872 39.7477 68.284 39.6757 67.228H44.9797ZM39.6997 66.028C39.7597 65.38 40.3957 64.54 41.5597 64.54C42.7117 64.528 43.3717 65.404 43.4317 66.028H39.6997ZM53.1598 61.12H51.5878V63.304V64.264C51.3478 63.88 50.6398 63.208 49.3798 63.208C47.5918 63.208 46.0678 64.564 46.0678 66.7C46.0678 68.62 47.3758 70.204 49.4038 70.204C50.7478 70.204 51.3718 69.544 51.6598 69.052V70H53.1598V61.12ZM47.6398 66.688C47.6398 65.656 48.3838 64.672 49.6678 64.672C50.2318 64.672 50.7358 64.888 51.0958 65.248C51.4558 65.596 51.6838 66.088 51.6838 66.664C51.7078 67.24 51.4918 67.756 51.1198 68.128C50.7478 68.5 50.2318 68.728 49.6558 68.728C48.4438 68.728 47.6398 67.816 47.6398 66.7V66.688Z" fill="#A4A4A4"/>
<path d="M39.0004 30.5585C37.9079 29.5563 36.4778 29 34.9935 29C34.2079 29.0008 33.4302 29.1566 32.7052 29.4584C31.9802 29.7602 31.3221 30.2021 30.769 30.7586C28.4095 33.1224 28.4105 36.8196 30.771 39.1734L38.123 46.5078C38.2935 46.8069 38.6224 47 39.0004 47C39.1557 46.9985 39.3084 46.9607 39.4463 46.8896C39.5842 46.8186 39.7035 46.7163 39.7946 46.5909L47.2299 39.1734C49.5904 36.8186 49.5904 33.1224 47.2279 30.7546C46.675 30.1991 46.0175 29.7581 45.2932 29.457C44.5689 29.1559 43.7921 29.0006 43.0074 29C41.5232 29.0002 40.0931 29.5565 39.0004 30.5585ZM45.81 32.1691C47.3773 33.7406 47.3783 36.1954 45.812 37.7589L39.0004 44.5542L32.1888 37.7589C30.6226 36.1954 30.6236 33.7406 32.1868 32.1731C32.9489 31.4168 33.9456 31.0007 34.9935 31.0007C36.0414 31.0007 37.0341 31.4168 37.7901 32.1711L38.2915 32.6712C38.3845 32.7642 38.4951 32.838 38.6167 32.8883C38.7383 32.9386 38.8687 32.9645 39.0004 32.9645C39.1321 32.9645 39.2625 32.9386 39.3842 32.8883C39.5058 32.838 39.6163 32.7642 39.7094 32.6712L40.2107 32.1711C41.7269 30.6616 44.2959 30.6656 45.81 32.1691Z" fill="#A4A4A4"/>
<path d="M97.572 67.024C97.404 67.348 96.684 68.596 95.1 68.596C93.408 68.596 92.244 67.168 92.244 65.548C92.244 63.976 93.36 62.524 95.088 62.524C96.504 62.536 97.296 63.532 97.572 64.144H99.456C99.108 62.848 97.656 60.964 95.1 60.952C92.292 60.952 90.456 63.184 90.456 65.548C90.456 68.02 92.4 70.168 95.112 70.168C97.188 70.168 98.916 68.86 99.456 67.024H97.572ZM107.656 63.412H106.084V64.372C105.796 63.844 105.064 63.208 103.864 63.208C102.016 63.208 100.516 64.624 100.516 66.7C100.516 68.56 101.752 70.204 103.864 70.204C104.788 70.204 105.664 69.82 106.084 69.052V70H107.656V63.412ZM102.088 66.724C102.088 65.704 102.808 64.672 104.08 64.672C105.028 64.672 105.64 65.212 105.916 65.836C106.048 66.124 106.108 66.448 106.096 66.76C106.072 67.084 106 67.396 105.844 67.684C105.544 68.284 104.968 68.74 104.092 68.74C102.676 68.74 102.088 67.552 102.088 66.736V66.724ZM109.891 70H111.463V64.624H112.591V63.412H111.463V61.12H109.891V63.412H108.799V64.624H109.891V70ZM119.917 67.228C120.049 66.076 119.749 65.044 118.945 64.216C118.333 63.58 117.469 63.208 116.485 63.208C114.493 63.208 113.029 64.852 113.029 66.724C113.029 68.56 114.481 70.204 116.509 70.204C117.193 70.204 117.841 70.012 118.393 69.628C118.945 69.256 119.413 68.704 119.725 67.972H118.105C117.805 68.512 117.289 68.86 116.521 68.86C115.621 68.872 114.685 68.284 114.613 67.228H119.917ZM114.637 66.028C114.697 65.38 115.333 64.54 116.497 64.54C117.649 64.528 118.309 65.404 118.369 66.028H114.637ZM128.085 63.412H126.501V64.3C126.129 63.652 125.313 63.22 124.365 63.22C122.541 63.22 121.005 64.588 121.005 66.736C121.005 68.764 122.469 70.204 124.365 70.204C125.481 70.204 126.177 69.616 126.501 69.028V69.58C126.501 70.912 125.481 71.56 124.545 71.56C124.353 71.56 124.005 71.512 123.681 71.332C123.393 71.188 123.141 70.96 122.997 70.66H121.173C121.413 71.68 122.397 72.904 124.449 72.904C125.805 72.904 126.909 72.304 127.473 71.548C127.881 70.996 128.085 70.3 128.085 69.22V63.412ZM122.577 66.688C122.577 65.512 123.477 64.684 124.545 64.684C125.229 64.684 125.721 64.948 126.033 65.344C126.357 65.728 126.513 66.256 126.513 66.76C126.501 67.324 126.297 67.816 125.949 68.164C125.601 68.524 125.133 68.728 124.545 68.728C123.405 68.728 122.577 67.852 122.577 66.7V66.688ZM129.507 66.7C129.507 68.404 130.743 70.192 133.035 70.192C135.327 70.192 136.563 68.404 136.563 66.7C136.563 65.008 135.327 63.22 133.035 63.22C130.743 63.22 129.507 65.008 129.507 66.688V66.7ZM131.079 66.7C131.079 65.536 131.955 64.684 133.035 64.684C134.115 64.684 134.979 65.536 134.979 66.7C134.979 67.864 134.115 68.716 133.035 68.716C131.955 68.716 131.079 67.864 131.079 66.712V66.7ZM138.005 70H139.577V66.448C139.577 65.308 140.141 64.792 141.245 64.792H141.317V63.208C140.321 63.22 139.781 63.688 139.493 64.276V63.412H138.005V70ZM142.511 62.524H144.083V61.12H142.511V62.524ZM142.511 70H144.083V63.412H142.511V70ZM152.336 67.228C152.468 66.076 152.168 65.044 151.364 64.216C150.752 63.58 149.888 63.208 148.904 63.208C146.912 63.208 145.448 64.852 145.448 66.724C145.448 68.56 146.9 70.204 148.928 70.204C149.612 70.204 150.26 70.012 150.812 69.628C151.364 69.256 151.832 68.704 152.144 67.972H150.524C150.224 68.512 149.708 68.86 148.94 68.86C148.04 68.872 147.104 68.284 147.032 67.228H152.336ZM147.056 66.028C147.116 65.38 147.752 64.54 148.916 64.54C150.068 64.528 150.728 65.404 150.788 66.028H147.056ZM158.176 65.188C158.044 63.604 156.724 63.208 155.836 63.208C154.564 63.208 153.472 64.012 153.472 65.308C153.484 66.256 154.204 66.748 155.092 67.024C156.304 67.444 156.796 67.6 156.796 68.164C156.808 68.608 156.388 68.932 155.896 68.932C155.596 68.932 154.984 68.788 154.924 68.08H153.352C153.472 69.676 154.852 70.204 155.872 70.204C157.252 70.204 158.392 69.34 158.368 67.984C158.356 66.568 157.216 66.256 156.16 65.968C155.536 65.788 155.056 65.56 155.044 65.14C155.044 64.816 155.296 64.48 155.824 64.48C156.436 64.48 156.616 64.84 156.628 65.188H158.176Z" fill="#A4A4A4"/>
<path d="M114 31C114 30.4696 114.211 29.9609 114.586 29.5858C114.961 29.2107 115.47 29 116 29H120C120.53 29 121.039 29.2107 121.414 29.5858C121.789 29.9609 122 30.4696 122 31V35C122 35.5304 121.789 36.0391 121.414 36.4142C121.039 36.7893 120.53 37 120 37H116C115.47 37 114.961 36.7893 114.586 36.4142C114.211 36.0391 114 35.5304 114 35V31ZM120 31H116V35H120V31ZM124 31C124 30.4696 124.211 29.9609 124.586 29.5858C124.961 29.2107 125.47 29 126 29H130C130.53 29 131.039 29.2107 131.414 29.5858C131.789 29.9609 132 30.4696 132 31V35C132 35.5304 131.789 36.0391 131.414 36.4142C131.039 36.7893 130.53 37 130 37H126C125.47 37 124.961 36.7893 124.586 36.4142C124.211 36.0391 124 35.5304 124 35V31ZM130 31H126V35H130V31ZM114 41C114 40.4696 114.211 39.9609 114.586 39.5858C114.961 39.2107 115.47 39 116 39H120C120.53 39 121.039 39.2107 121.414 39.5858C121.789 39.9609 122 40.4696 122 41V45C122 45.5304 121.789 46.0391 121.414 46.4142C121.039 46.7893 120.53 47 120 47H116C115.47 47 114.961 46.7893 114.586 46.4142C114.211 46.0391 114 45.5304 114 45V41ZM120 41H116V45H120V41ZM124 41C124 40.4696 124.211 39.9609 124.586 39.5858C124.961 39.2107 125.47 39 126 39H130C130.53 39 131.039 39.2107 131.414 39.5858C131.789 39.9609 132 40.4696 132 41V45C132 45.5304 131.789 46.0391 131.414 46.4142C131.039 46.7893 130.53 47 130 47H126C125.47 47 124.961 46.7893 124.586 46.4142C124.211 46.0391 124 45.5304 124 45V41ZM130 41H126V45H130V41Z" fill="#A4A4A4"/>
<path d="M284.676 68.26H288.18L288.828 70H290.784L287.268 61.12H285.696L282.096 70H284.04L284.676 68.26ZM287.7 66.832H285.144L286.404 63.232L287.7 66.832ZM296.847 67.6C296.607 68.14 296.055 68.728 295.071 68.728C293.955 68.728 293.127 67.888 293.127 66.7C293.127 66.124 293.331 65.596 293.667 65.236C294.051 64.864 294.495 64.66 295.071 64.672C295.935 64.672 296.571 65.164 296.847 65.86H298.455C298.071 64.252 296.667 63.208 295.011 63.208C293.043 63.208 291.543 64.756 291.543 66.7C291.543 68.584 292.983 70.204 295.071 70.204C296.775 70.204 298.083 69.064 298.455 67.6H296.847ZM304.809 67.6C304.569 68.14 304.017 68.728 303.033 68.728C301.917 68.728 301.089 67.888 301.089 66.7C301.089 66.124 301.293 65.596 301.629 65.236C302.013 64.864 302.457 64.66 303.033 64.672C303.897 64.672 304.533 65.164 304.809 65.86H306.417C306.033 64.252 304.629 63.208 302.973 63.208C301.005 63.208 299.505 64.756 299.505 66.7C299.505 68.584 300.945 70.204 303.033 70.204C304.737 70.204 306.045 69.064 306.417 67.6H304.809ZM307.48 66.7C307.48 68.404 308.716 70.192 311.008 70.192C313.3 70.192 314.536 68.404 314.536 66.7C314.536 65.008 313.3 63.22 311.008 63.22C308.716 63.22 307.48 65.008 307.48 66.688V66.7ZM309.052 66.7C309.052 65.536 309.928 64.684 311.008 64.684C312.088 64.684 312.952 65.536 312.952 66.7C312.952 67.864 312.088 68.716 311.008 68.716C309.928 68.716 309.052 67.864 309.052 66.712V66.7ZM322.062 63.412H320.49V67.048C320.49 67.984 320.106 68.728 318.978 68.728C317.862 68.74 317.538 67.972 317.538 67V63.412H315.966V67.396C315.966 68.548 316.374 70.192 318.534 70.204C319.722 70.216 320.31 69.64 320.586 69.124V70H322.062V63.412ZM323.859 70H325.431V66.364C325.431 65.44 325.815 64.696 326.931 64.684C328.035 64.684 328.359 65.44 328.359 66.424V70H329.931V66.028C329.931 64.864 329.523 63.22 327.375 63.208C326.199 63.196 325.611 63.772 325.323 64.288C325.335 63.976 325.335 63.7 325.335 63.412H323.859V70ZM332.136 70H333.708V64.624H334.836V63.412H333.708V61.12H332.136V63.412H331.044V64.624H332.136V70Z" fill="#A4A4A4"/>
<path d="M315.333 43.6894C314.907 42.679 314.288 41.7612 313.511 40.9872C312.737 40.2109 311.819 39.592 310.81 39.1646C310.801 39.1601 310.791 39.1578 310.782 39.1533C312.191 38.1357 313.106 36.4781 313.106 34.608C313.106 31.5101 310.597 29 307.5 29C304.403 29 301.894 31.5101 301.894 34.608C301.894 36.4781 302.809 38.1357 304.218 39.1555C304.209 39.16 304.199 39.1623 304.19 39.1668C303.178 39.5942 302.269 40.207 301.489 40.9894C300.713 41.7641 300.094 42.6817 299.667 43.6917C299.247 44.6805 299.021 45.7406 299 46.8146C298.999 46.8387 299.004 46.8627 299.013 46.8852C299.021 46.9077 299.035 46.9281 299.051 46.9454C299.068 46.9627 299.088 46.9764 299.111 46.9858C299.133 46.9952 299.157 47 299.181 47H300.537C300.637 47 300.716 46.9209 300.718 46.8236C300.763 45.0779 301.464 43.443 302.703 42.2038C303.985 40.9216 305.687 40.2161 307.5 40.2161C309.313 40.2161 311.015 40.9216 312.297 42.2038C313.536 43.443 314.237 45.0779 314.282 46.8236C314.284 46.9231 314.363 47 314.463 47H315.819C315.843 47 315.867 46.9952 315.889 46.9858C315.912 46.9764 315.932 46.9627 315.949 46.9454C315.965 46.9281 315.979 46.9077 315.987 46.8852C315.996 46.8627 316.001 46.8387 316 46.8146C315.977 45.7337 315.754 44.6822 315.333 43.6894ZM307.5 38.4975C306.462 38.4975 305.486 38.0927 304.751 37.3578C304.016 36.6229 303.612 35.646 303.612 34.608C303.612 33.5701 304.016 32.5932 304.751 31.8583C305.486 31.1234 306.462 30.7186 307.5 30.7186C308.538 30.7186 309.514 31.1234 310.249 31.8583C310.984 32.5932 311.388 33.5701 311.388 34.608C311.388 35.646 310.984 36.6229 310.249 37.3578C309.514 38.0927 308.538 38.4975 307.5 38.4975Z" fill="#A4A4A4"/>
<path d="M379.36 67.24C379.348 68.956 380.392 70.168 382.408 70.168C384.496 70.168 385.372 68.836 385.372 67.408C385.372 66.148 384.616 65.5 383.26 64.912C381.76 64.288 381.28 64.12 381.292 63.46C381.292 62.86 381.796 62.452 382.384 62.452C383.26 62.452 383.416 63.136 383.488 63.544H385.252C385.18 61.576 383.62 60.952 382.444 60.952C381.004 60.952 379.504 61.876 379.504 63.58C379.504 65.26 381.052 65.812 381.724 66.052C382.96 66.544 383.596 66.736 383.596 67.492C383.596 68.116 383.068 68.668 382.384 68.668C382 68.668 381.196 68.44 381.136 67.24H379.36ZM393.515 63.412H391.943V64.372C391.655 63.844 390.923 63.208 389.723 63.208C387.875 63.208 386.375 64.624 386.375 66.7C386.375 68.56 387.611 70.204 389.723 70.204C390.647 70.204 391.523 69.82 391.943 69.052V70H393.515V63.412ZM387.947 66.724C387.947 65.704 388.667 64.672 389.939 64.672C390.887 64.672 391.499 65.212 391.775 65.836C391.907 66.124 391.967 66.448 391.955 66.76C391.931 67.084 391.859 67.396 391.703 67.684C391.403 68.284 390.827 68.74 389.951 68.74C388.535 68.74 387.947 67.552 387.947 66.736V66.724ZM395.319 70H396.891V61.12H395.319V70ZM405.144 67.228C405.276 66.076 404.976 65.044 404.172 64.216C403.56 63.58 402.696 63.208 401.712 63.208C399.72 63.208 398.256 64.852 398.256 66.724C398.256 68.56 399.708 70.204 401.736 70.204C402.42 70.204 403.068 70.012 403.62 69.628C404.172 69.256 404.64 68.704 404.952 67.972H403.332C403.032 68.512 402.516 68.86 401.748 68.86C400.848 68.872 399.912 68.284 399.84 67.228H405.144ZM399.864 66.028C399.924 65.38 400.56 64.54 401.724 64.54C402.876 64.528 403.536 65.404 403.596 66.028H399.864Z" fill="#A4A4A4"/>
<path d="M392 30.5585C390.908 29.5563 389.478 29 387.993 29C387.208 29.0008 386.43 29.1566 385.705 29.4584C384.98 29.7602 384.322 30.2021 383.769 30.7586C381.41 33.1224 381.411 36.8196 383.771 39.1734L391.123 46.5078C391.294 46.8069 391.622 47 392 47C392.156 46.9985 392.308 46.9607 392.446 46.8896C392.584 46.8186 392.704 46.7163 392.795 46.5909L400.23 39.1734C402.59 36.8186 402.59 33.1224 400.228 30.7546C399.675 30.1991 399.018 29.7581 398.293 29.457C397.569 29.1559 396.792 29.0006 396.007 29C394.523 29.0002 393.093 29.5565 392 30.5585ZM398.81 32.1691C400.377 33.7406 400.378 36.1954 398.812 37.7589L392 44.5542L385.189 37.7589C383.623 36.1954 383.624 33.7406 385.187 32.1731C385.949 31.4168 386.946 31.0007 387.993 31.0007C389.041 31.0007 390.034 31.4168 390.79 32.1711L391.292 32.6712C391.385 32.7642 391.495 32.838 391.617 32.8883C391.738 32.9386 391.869 32.9645 392 32.9645C392.132 32.9645 392.263 32.9386 392.384 32.8883C392.506 32.838 392.616 32.7642 392.709 32.6712L393.211 32.1711C394.727 30.6616 397.296 30.6656 398.81 32.1691Z" fill="#A4A4A4"/>
<rect y="75" width="430" height="23" fill="white"/>
<rect x="145" y="83.6729" width="140" height="4" rx="2" fill="#E7E7E7"/>
<circle cx="215" cy="34" r="34" fill="#D24747"/>
<path d="M214.135 18.3319C214.373 18.1181 214.681 18 215 18C215.319 18 215.627 18.1181 215.865 18.3319L227.594 28.8587C227.84 29.0938 227.985 29.416 227.999 29.7571C228.013 30.0983 227.895 30.4317 227.671 30.6869C227.446 30.9421 227.132 31.0991 226.795 31.1248C226.458 31.1505 226.124 31.0428 225.864 30.8245L225.426 30.4337V40.3683C225.426 41.0663 225.151 41.7357 224.662 42.2292C224.174 42.7227 223.511 43 222.819 43H218.91H211.09H207.181C206.489 43 205.826 42.7227 205.338 42.2292C204.849 41.7357 204.574 41.0663 204.574 40.3683V30.4337L204.136 30.8245C203.876 31.0428 203.542 31.1505 203.205 31.1248C202.868 31.0991 202.554 30.9421 202.329 30.6869C202.105 30.4317 201.987 30.0983 202.001 29.7571C202.015 29.416 202.16 29.0938 202.406 28.8587L214.135 18.3319ZM207.181 28.0915V40.3683H211.09V33.7891C211.09 33.4401 211.228 33.1054 211.472 32.8587C211.716 32.6119 212.048 32.4733 212.394 32.4733H217.606C217.952 32.4733 218.284 32.6119 218.528 32.8587C218.772 33.1054 218.91 33.4401 218.91 33.7891V40.3683H222.819V28.0928L215 21.0755L207.181 28.0915ZM216.303 40.3683V35.105H213.697V40.3683H216.303Z" fill="white"/>
</svg>
