<svg width="430" height="104" viewBox="0 0 430 104" fill="none" xmlns="http://www.w3.org/2000/svg">
<g filter="url(#filter0_d_291_3967)">
<path d="M0 13H430V86H0V13Z" fill="white"/>
</g>
<rect y="81" width="430" height="23" fill="white"/>
<rect x="145" y="89.6729" width="140" height="4" rx="2" fill="#E7E7E7"/>
<path d="M207.876 72H212.58V70.428H209.664V63.12H207.876V72ZM213.668 64.524H215.24V63.12H213.668V64.524ZM213.668 72H215.24V65.412H213.668V72ZM217.074 72H218.646V68.712L221.01 72H222.81L220.062 68.316L222.798 65.412H220.914L218.646 67.92V63.12H217.074V72ZM229.98 69.228C230.112 68.076 229.812 67.044 229.008 66.216C228.396 65.58 227.532 65.208 226.548 65.208C224.556 65.208 223.092 66.852 223.092 68.724C223.092 70.56 224.544 72.204 226.572 72.204C227.256 72.204 227.904 72.012 228.456 71.628C229.008 71.256 229.476 70.704 229.788 69.972H228.168C227.868 70.512 227.352 70.86 226.584 70.86C225.684 70.872 224.748 70.284 224.676 69.228H229.98ZM224.7 68.028C224.76 67.38 225.396 66.54 226.56 66.54C227.712 66.528 228.372 67.404 228.432 68.028H224.7ZM238.16 63.12H236.588V65.304V66.264C236.348 65.88 235.64 65.208 234.38 65.208C232.592 65.208 231.068 66.564 231.068 68.7C231.068 70.62 232.376 72.204 234.404 72.204C235.748 72.204 236.372 71.544 236.66 71.052V72H238.16V63.12ZM232.64 68.688C232.64 67.656 233.384 66.672 234.668 66.672C235.232 66.672 235.736 66.888 236.096 67.248C236.456 67.596 236.684 68.088 236.684 68.664C236.708 69.24 236.492 69.756 236.12 70.128C235.748 70.5 235.232 70.728 234.656 70.728C233.444 70.728 232.64 69.816 232.64 68.7V68.688Z" fill="#A4A4A4"/>
<path d="M224 32.5585C222.908 31.5563 221.478 31 219.993 31C219.208 31.0008 218.43 31.1566 217.705 31.4584C216.98 31.7602 216.322 32.2021 215.769 32.7586C213.41 35.1224 213.411 38.8196 215.771 41.1734L223.123 48.5078C223.294 48.8069 223.622 49 224 49C224.156 48.9985 224.308 48.9607 224.446 48.8896C224.584 48.8186 224.704 48.7163 224.795 48.5909L232.23 41.1734C234.59 38.8186 234.59 35.1224 232.228 32.7546C231.675 32.1991 231.018 31.7581 230.293 31.457C229.569 31.1559 228.792 31.0006 228.007 31C226.523 31.0002 225.093 31.5565 224 32.5585ZM230.81 34.1691C232.377 35.7406 232.378 38.1954 230.812 39.7589L224 46.5542L217.189 39.7589C215.623 38.1954 215.624 35.7406 217.187 34.1731C217.949 33.4168 218.946 33.0007 219.993 33.0007C221.041 33.0007 222.034 33.4168 222.79 34.1711L223.292 34.6712C223.385 34.7642 223.495 34.838 223.617 34.8883C223.738 34.9386 223.869 34.9645 224 34.9645C224.132 34.9645 224.263 34.9386 224.384 34.8883C224.506 34.838 224.616 34.7642 224.709 34.6712L225.211 34.1711C226.727 32.6616 229.296 32.6656 230.81 34.1691Z" fill="#A4A4A4"/>
<path d="M379.36 69.24C379.348 70.956 380.392 72.168 382.408 72.168C384.496 72.168 385.372 70.836 385.372 69.408C385.372 68.148 384.616 67.5 383.26 66.912C381.76 66.288 381.28 66.12 381.292 65.46C381.292 64.86 381.796 64.452 382.384 64.452C383.26 64.452 383.416 65.136 383.488 65.544H385.252C385.18 63.576 383.62 62.952 382.444 62.952C381.004 62.952 379.504 63.876 379.504 65.58C379.504 67.26 381.052 67.812 381.724 68.052C382.96 68.544 383.596 68.736 383.596 69.492C383.596 70.116 383.068 70.668 382.384 70.668C382 70.668 381.196 70.44 381.136 69.24H379.36ZM393.515 65.412H391.943V66.372C391.655 65.844 390.923 65.208 389.723 65.208C387.875 65.208 386.375 66.624 386.375 68.7C386.375 70.56 387.611 72.204 389.723 72.204C390.647 72.204 391.523 71.82 391.943 71.052V72H393.515V65.412ZM387.947 68.724C387.947 67.704 388.667 66.672 389.939 66.672C390.887 66.672 391.499 67.212 391.775 67.836C391.907 68.124 391.967 68.448 391.955 68.76C391.931 69.084 391.859 69.396 391.703 69.684C391.403 70.284 390.827 70.74 389.951 70.74C388.535 70.74 387.947 69.552 387.947 68.736V68.724ZM395.319 72H396.891V63.12H395.319V72ZM405.144 69.228C405.276 68.076 404.976 67.044 404.172 66.216C403.56 65.58 402.696 65.208 401.712 65.208C399.72 65.208 398.256 66.852 398.256 68.724C398.256 70.56 399.708 72.204 401.736 72.204C402.42 72.204 403.068 72.012 403.62 71.628C404.172 71.256 404.64 70.704 404.952 69.972H403.332C403.032 70.512 402.516 70.86 401.748 70.86C400.848 70.872 399.912 70.284 399.84 69.228H405.144ZM399.864 68.028C399.924 67.38 400.56 66.54 401.724 66.54C402.876 66.528 403.536 67.404 403.596 68.028H399.864Z" fill="#A4A4A4"/>
<path d="M392 32.5585C390.908 31.5563 389.478 31 387.993 31C387.208 31.0008 386.43 31.1566 385.705 31.4584C384.98 31.7602 384.322 32.2021 383.769 32.7586C381.41 35.1224 381.411 38.8196 383.771 41.1734L391.123 48.5078C391.294 48.8069 391.622 49 392 49C392.156 48.9985 392.308 48.9607 392.446 48.8896C392.584 48.8186 392.704 48.7163 392.795 48.5909L400.23 41.1734C402.59 38.8186 402.59 35.1224 400.228 32.7546C399.675 32.1991 399.018 31.7581 398.293 31.457C397.569 31.1559 396.792 31.0006 396.007 31C394.523 31.0002 393.093 31.5565 392 32.5585ZM398.81 34.1691C400.377 35.7406 400.378 38.1954 398.812 39.7589L392 46.5542L385.189 39.7589C383.623 38.1954 383.624 35.7406 385.187 34.1731C385.949 33.4168 386.946 33.0007 387.993 33.0007C389.041 33.0007 390.034 33.4168 390.79 34.1711L391.292 34.6712C391.385 34.7642 391.495 34.838 391.617 34.8883C391.738 34.9386 391.869 34.9645 392 34.9645C392.132 34.9645 392.263 34.9386 392.384 34.8883C392.506 34.838 392.616 34.7642 392.709 34.6712L393.211 34.1711C394.727 32.6616 397.296 32.6656 398.81 34.1691Z" fill="#A4A4A4"/>
<path d="M24.628 72V68.256H28.048V72H29.836V63.12H28.048V66.684H24.628V63.12H22.84V72H24.628ZM31.3322 68.7C31.3322 70.404 32.5682 72.192 34.8602 72.192C37.1522 72.192 38.3882 70.404 38.3882 68.7C38.3882 67.008 37.1522 65.22 34.8602 65.22C32.5682 65.22 31.3322 67.008 31.3322 68.688V68.7ZM32.9042 68.7C32.9042 67.536 33.7802 66.684 34.8602 66.684C35.9402 66.684 36.8042 67.536 36.8042 68.7C36.8042 69.864 35.9402 70.716 34.8602 70.716C33.7802 70.716 32.9042 69.864 32.9042 68.712V68.7ZM39.842 72H41.414V68.436C41.414 68.052 41.474 67.644 41.666 67.296C41.858 66.96 42.218 66.684 42.794 66.684C43.358 66.696 43.682 66.948 43.874 67.296C44.042 67.632 44.078 68.004 44.078 68.388V72H45.65V68.388C45.65 67.992 45.674 67.644 45.878 67.284C46.082 66.924 46.466 66.684 47.018 66.684C47.57 66.684 47.882 66.9 48.05 67.224C48.278 67.572 48.314 68.028 48.314 68.448V72H49.886V68.388C49.886 67.032 49.766 66.492 49.166 65.868C48.662 65.352 47.966 65.208 47.414 65.208C46.718 65.208 46.142 65.472 45.734 65.856C45.518 66.06 45.374 66.276 45.254 66.48C45.17 66.312 45.002 66.036 44.858 65.88C44.378 65.364 43.778 65.208 43.238 65.208C42.098 65.208 41.462 65.94 41.318 66.24V65.412H39.842V72ZM58.1164 69.228C58.2484 68.076 57.9484 67.044 57.1444 66.216C56.5324 65.58 55.6684 65.208 54.6844 65.208C52.6924 65.208 51.2284 66.852 51.2284 68.724C51.2284 70.56 52.6804 72.204 54.7084 72.204C55.3924 72.204 56.0404 72.012 56.5924 71.628C57.1444 71.256 57.6124 70.704 57.9244 69.972H56.3044C56.0044 70.512 55.4884 70.86 54.7204 70.86C53.8204 70.872 52.8844 70.284 52.8124 69.228H58.1164ZM52.8364 68.028C52.8964 67.38 53.5324 66.54 54.6964 66.54C55.8484 66.528 56.5084 67.404 56.5684 68.028H52.8364Z" fill="#D24747"/>
<path d="M38.3113 31.2523C38.4943 31.0898 38.7305 31 38.9753 31C39.22 31 39.4563 31.0898 39.6393 31.2523L48.6393 39.2523C48.8274 39.431 48.9387 39.6758 48.9496 39.9351C48.9606 40.1943 48.8703 40.4477 48.6979 40.6416C48.5256 40.8356 48.2845 40.9549 48.0258 40.9744C47.767 40.994 47.5108 40.9121 47.3113 40.7463L46.9753 40.4493V47.9993C46.9753 48.5297 46.7646 49.0384 46.3895 49.4135C46.0144 49.7886 45.5057 49.9993 44.9753 49.9993H41.9753H35.9753H32.9753C32.4448 49.9993 31.9361 49.7886 31.5611 49.4135C31.186 49.0384 30.9753 48.5297 30.9753 47.9993V40.4493L30.6393 40.7463C30.4397 40.9121 30.1835 40.994 29.9248 40.9744C29.666 40.9549 29.425 40.8356 29.2526 40.6416C29.0802 40.4477 28.9899 40.1943 29.0009 39.9351C29.0118 39.6758 29.1231 39.431 29.3113 39.2523L38.3113 31.2523ZM32.9753 38.6693V47.9993H35.9753V42.9993C35.9753 42.7341 36.0806 42.4797 36.2682 42.2922C36.4557 42.1046 36.7101 41.9993 36.9753 41.9993H40.9753C41.2405 41.9993 41.4948 42.1046 41.6824 42.2922C41.8699 42.4797 41.9753 42.7341 41.9753 42.9993V47.9993H44.9753V38.6703L38.9753 33.3373L32.9753 38.6693ZM39.9753 47.9993V43.9993H37.9753V47.9993H39.9753Z" fill="#D24747"/>
<path d="M107.572 69.024C107.404 69.348 106.684 70.596 105.1 70.596C103.408 70.596 102.244 69.168 102.244 67.548C102.244 65.976 103.36 64.524 105.088 64.524C106.504 64.536 107.296 65.532 107.572 66.144H109.456C109.108 64.848 107.656 62.964 105.1 62.952C102.292 62.952 100.456 65.184 100.456 67.548C100.456 70.02 102.4 72.168 105.112 72.168C107.188 72.168 108.916 70.86 109.456 69.024H107.572ZM117.656 65.412H116.084V66.372C115.796 65.844 115.064 65.208 113.864 65.208C112.016 65.208 110.516 66.624 110.516 68.7C110.516 70.56 111.752 72.204 113.864 72.204C114.788 72.204 115.664 71.82 116.084 71.052V72H117.656V65.412ZM112.088 68.724C112.088 67.704 112.808 66.672 114.08 66.672C115.028 66.672 115.64 67.212 115.916 67.836C116.048 68.124 116.108 68.448 116.096 68.76C116.072 69.084 116 69.396 115.844 69.684C115.544 70.284 114.968 70.74 114.092 70.74C112.676 70.74 112.088 69.552 112.088 68.736V68.724ZM119.891 72H121.463V66.624H122.591V65.412H121.463V63.12H119.891V65.412H118.799V66.624H119.891V72ZM129.917 69.228C130.049 68.076 129.749 67.044 128.945 66.216C128.333 65.58 127.469 65.208 126.485 65.208C124.493 65.208 123.029 66.852 123.029 68.724C123.029 70.56 124.481 72.204 126.509 72.204C127.193 72.204 127.841 72.012 128.393 71.628C128.945 71.256 129.413 70.704 129.725 69.972H128.105C127.805 70.512 127.289 70.86 126.521 70.86C125.621 70.872 124.685 70.284 124.613 69.228H129.917ZM124.637 68.028C124.697 67.38 125.333 66.54 126.497 66.54C127.649 66.528 128.309 67.404 128.369 68.028H124.637ZM138.085 65.412H136.501V66.3C136.129 65.652 135.313 65.22 134.365 65.22C132.541 65.22 131.005 66.588 131.005 68.736C131.005 70.764 132.469 72.204 134.365 72.204C135.481 72.204 136.177 71.616 136.501 71.028V71.58C136.501 72.912 135.481 73.56 134.545 73.56C134.353 73.56 134.005 73.512 133.681 73.332C133.393 73.188 133.141 72.96 132.997 72.66H131.173C131.413 73.68 132.397 74.904 134.449 74.904C135.805 74.904 136.909 74.304 137.473 73.548C137.881 72.996 138.085 72.3 138.085 71.22V65.412ZM132.577 68.688C132.577 67.512 133.477 66.684 134.545 66.684C135.229 66.684 135.721 66.948 136.033 67.344C136.357 67.728 136.513 68.256 136.513 68.76C136.501 69.324 136.297 69.816 135.949 70.164C135.601 70.524 135.133 70.728 134.545 70.728C133.405 70.728 132.577 69.852 132.577 68.7V68.688ZM139.507 68.7C139.507 70.404 140.743 72.192 143.035 72.192C145.327 72.192 146.563 70.404 146.563 68.7C146.563 67.008 145.327 65.22 143.035 65.22C140.743 65.22 139.507 67.008 139.507 68.688V68.7ZM141.079 68.7C141.079 67.536 141.955 66.684 143.035 66.684C144.115 66.684 144.979 67.536 144.979 68.7C144.979 69.864 144.115 70.716 143.035 70.716C141.955 70.716 141.079 69.864 141.079 68.712V68.7ZM148.005 72H149.577V68.448C149.577 67.308 150.141 66.792 151.245 66.792H151.317V65.208C150.321 65.22 149.781 65.688 149.493 66.276V65.412H148.005V72ZM152.511 64.524H154.083V63.12H152.511V64.524ZM152.511 72H154.083V65.412H152.511V72ZM162.336 69.228C162.468 68.076 162.168 67.044 161.364 66.216C160.752 65.58 159.888 65.208 158.904 65.208C156.912 65.208 155.448 66.852 155.448 68.724C155.448 70.56 156.9 72.204 158.928 72.204C159.612 72.204 160.26 72.012 160.812 71.628C161.364 71.256 161.832 70.704 162.144 69.972H160.524C160.224 70.512 159.708 70.86 158.94 70.86C158.04 70.872 157.104 70.284 157.032 69.228H162.336ZM157.056 68.028C157.116 67.38 157.752 66.54 158.916 66.54C160.068 66.528 160.728 67.404 160.788 68.028H157.056ZM168.176 67.188C168.044 65.604 166.724 65.208 165.836 65.208C164.564 65.208 163.472 66.012 163.472 67.308C163.484 68.256 164.204 68.748 165.092 69.024C166.304 69.444 166.796 69.6 166.796 70.164C166.808 70.608 166.388 70.932 165.896 70.932C165.596 70.932 164.984 70.788 164.924 70.08H163.352C163.472 71.676 164.852 72.204 165.872 72.204C167.252 72.204 168.392 71.34 168.368 69.984C168.356 68.568 167.216 68.256 166.16 67.968C165.536 67.788 165.056 67.56 165.044 67.14C165.044 66.816 165.296 66.48 165.824 66.48C166.436 66.48 166.616 66.84 166.628 67.188H168.176Z" fill="#A4A4A4"/>
<path d="M124 33C124 32.4696 124.211 31.9609 124.586 31.5858C124.961 31.2107 125.47 31 126 31H130C130.53 31 131.039 31.2107 131.414 31.5858C131.789 31.9609 132 32.4696 132 33V37C132 37.5304 131.789 38.0391 131.414 38.4142C131.039 38.7893 130.53 39 130 39H126C125.47 39 124.961 38.7893 124.586 38.4142C124.211 38.0391 124 37.5304 124 37V33ZM130 33H126V37H130V33ZM134 33C134 32.4696 134.211 31.9609 134.586 31.5858C134.961 31.2107 135.47 31 136 31H140C140.53 31 141.039 31.2107 141.414 31.5858C141.789 31.9609 142 32.4696 142 33V37C142 37.5304 141.789 38.0391 141.414 38.4142C141.039 38.7893 140.53 39 140 39H136C135.47 39 134.961 38.7893 134.586 38.4142C134.211 38.0391 134 37.5304 134 37V33ZM140 33H136V37H140V33ZM124 43C124 42.4696 124.211 41.9609 124.586 41.5858C124.961 41.2107 125.47 41 126 41H130C130.53 41 131.039 41.2107 131.414 41.5858C131.789 41.9609 132 42.4696 132 43V47C132 47.5304 131.789 48.0391 131.414 48.4142C131.039 48.7893 130.53 49 130 49H126C125.47 49 124.961 48.7893 124.586 48.4142C124.211 48.0391 124 47.5304 124 47V43ZM130 43H126V47H130V43ZM134 43C134 42.4696 134.211 41.9609 134.586 41.5858C134.961 41.2107 135.47 41 136 41H140C140.53 41 141.039 41.2107 141.414 41.5858C141.789 41.9609 142 42.4696 142 43V47C142 47.5304 141.789 48.0391 141.414 48.4142C141.039 48.7893 140.53 49 140 49H136C135.47 49 134.961 48.7893 134.586 48.4142C134.211 48.0391 134 47.5304 134 47V43ZM140 43H136V47H140V43Z" fill="#A4A4A4"/>
<path d="M284.676 70.26H288.18L288.828 72H290.784L287.268 63.12H285.696L282.096 72H284.04L284.676 70.26ZM287.7 68.832H285.144L286.404 65.232L287.7 68.832ZM296.847 69.6C296.607 70.14 296.055 70.728 295.071 70.728C293.955 70.728 293.127 69.888 293.127 68.7C293.127 68.124 293.331 67.596 293.667 67.236C294.051 66.864 294.495 66.66 295.071 66.672C295.935 66.672 296.571 67.164 296.847 67.86H298.455C298.071 66.252 296.667 65.208 295.011 65.208C293.043 65.208 291.543 66.756 291.543 68.7C291.543 70.584 292.983 72.204 295.071 72.204C296.775 72.204 298.083 71.064 298.455 69.6H296.847ZM304.809 69.6C304.569 70.14 304.017 70.728 303.033 70.728C301.917 70.728 301.089 69.888 301.089 68.7C301.089 68.124 301.293 67.596 301.629 67.236C302.013 66.864 302.457 66.66 303.033 66.672C303.897 66.672 304.533 67.164 304.809 67.86H306.417C306.033 66.252 304.629 65.208 302.973 65.208C301.005 65.208 299.505 66.756 299.505 68.7C299.505 70.584 300.945 72.204 303.033 72.204C304.737 72.204 306.045 71.064 306.417 69.6H304.809ZM307.48 68.7C307.48 70.404 308.716 72.192 311.008 72.192C313.3 72.192 314.536 70.404 314.536 68.7C314.536 67.008 313.3 65.22 311.008 65.22C308.716 65.22 307.48 67.008 307.48 68.688V68.7ZM309.052 68.7C309.052 67.536 309.928 66.684 311.008 66.684C312.088 66.684 312.952 67.536 312.952 68.7C312.952 69.864 312.088 70.716 311.008 70.716C309.928 70.716 309.052 69.864 309.052 68.712V68.7ZM322.062 65.412H320.49V69.048C320.49 69.984 320.106 70.728 318.978 70.728C317.862 70.74 317.538 69.972 317.538 69V65.412H315.966V69.396C315.966 70.548 316.374 72.192 318.534 72.204C319.722 72.216 320.31 71.64 320.586 71.124V72H322.062V65.412ZM323.859 72H325.431V68.364C325.431 67.44 325.815 66.696 326.931 66.684C328.035 66.684 328.359 67.44 328.359 68.424V72H329.931V68.028C329.931 66.864 329.523 65.22 327.375 65.208C326.199 65.196 325.611 65.772 325.323 66.288C325.335 65.976 325.335 65.7 325.335 65.412H323.859V72ZM332.136 72H333.708V66.624H334.836V65.412H333.708V63.12H332.136V65.412H331.044V66.624H332.136V72Z" fill="#A4A4A4"/>
<path d="M315.333 45.6894C314.907 44.679 314.288 43.7612 313.511 42.9872C312.737 42.2109 311.819 41.592 310.81 41.1646C310.801 41.1601 310.791 41.1578 310.782 41.1533C312.191 40.1357 313.106 38.4781 313.106 36.608C313.106 33.5101 310.597 31 307.5 31C304.403 31 301.894 33.5101 301.894 36.608C301.894 38.4781 302.809 40.1357 304.218 41.1555C304.209 41.16 304.199 41.1623 304.19 41.1668C303.178 41.5942 302.269 42.207 301.489 42.9894C300.713 43.7641 300.094 44.6817 299.667 45.6917C299.247 46.6805 299.021 47.7406 299 48.8146C298.999 48.8387 299.004 48.8627 299.013 48.8852C299.021 48.9077 299.035 48.9281 299.051 48.9454C299.068 48.9627 299.088 48.9764 299.111 48.9858C299.133 48.9952 299.157 49 299.181 49H300.537C300.637 49 300.716 48.9209 300.718 48.8236C300.763 47.0779 301.464 45.443 302.703 44.2038C303.985 42.9216 305.687 42.2161 307.5 42.2161C309.313 42.2161 311.015 42.9216 312.297 44.2038C313.536 45.443 314.237 47.0779 314.282 48.8236C314.284 48.9231 314.363 49 314.463 49H315.819C315.843 49 315.867 48.9952 315.889 48.9858C315.912 48.9764 315.932 48.9627 315.949 48.9454C315.965 48.9281 315.979 48.9077 315.987 48.8852C315.996 48.8627 316.001 48.8387 316 48.8146C315.977 47.7337 315.754 46.6822 315.333 45.6894ZM307.5 40.4975C306.462 40.4975 305.486 40.0927 304.751 39.3578C304.016 38.6229 303.612 37.646 303.612 36.608C303.612 35.5701 304.016 34.5932 304.751 33.8583C305.486 33.1234 306.462 32.7186 307.5 32.7186C308.538 32.7186 309.514 33.1234 310.249 33.8583C310.984 34.5932 311.388 35.5701 311.388 36.608C311.388 37.646 310.984 38.6229 310.249 39.3578C309.514 40.0927 308.538 40.4975 307.5 40.4975Z" fill="#A4A4A4"/>
<defs>
<filter id="filter0_d_291_3967" x="-8" y="0" width="446" height="89" filterUnits="userSpaceOnUse" color-interpolation-filters="sRGB">
<feFlood flood-opacity="0" result="BackgroundImageFix"/>
<feColorMatrix in="SourceAlpha" type="matrix" values="0 0 0 0 0 0 0 0 0 0 0 0 0 0 0 0 0 0 127 0" result="hardAlpha"/>
<feOffset dy="-5"/>
<feGaussianBlur stdDeviation="4"/>
<feComposite in2="hardAlpha" operator="out"/>
<feColorMatrix type="matrix" values="0 0 0 0 0 0 0 0 0 0 0 0 0 0 0 0 0 0 0.03 0"/>
<feBlend mode="normal" in2="BackgroundImageFix" result="effect1_dropShadow_291_3967"/>
<feBlend mode="normal" in="SourceGraphic" in2="effect1_dropShadow_291_3967" result="shape"/>
</filter>
</defs>
</svg>
